# xmcd CD database file
#
# Track frame offsets:
#	150
#	30927
#	62635
#	87035
#	115972
#	139650
#	173105
#	198747
#	233242
#	255865
#
# Disc length: 3833 seconds
#
# Revision: 2
# Processed by: cddbd v1.5.2PL0 Copyright (c) Steve Scherf et al.
# Submitted via: CDex 1.70beta3
#
DISCID=7a0ef70a
DTITLE=Various Artist - ジャズ・カフェ 〜 ジャジー・ナイト・ムード
DYEAR=2001
DGENRE=Jazz+Funk
TTITLE0=アイス／ヒューズ・ワン
TTITLE1=パッション・フルーツ／ロニー・キューバー
TTITLE2=ア・ロンリー・スマイル／ヒューズ・ワン
TTITLE3=ラ・ティグラ／デビッド・マシューズ＆ファースト・コールズ
TTITLE4=クッド・イット・ビー・ユー／ディジー・ガレスピー
TTITLE5=トゥー・ブラザース／ロニー・キューバー
TTITLE6=コンドルは飛んで行く／ジム・ホール＆デビッド・マシューズ・オーケストラ
TTITLE7=ホワイ・ノット？／ミシェル・カミロ
TTITLE8=クロサー・トゥー・ザ・ソース／ディジー・ガレスピー
TTITLE9=ビール・ストリート・ブギ／ニューヨーク・ライナー
EXTD=YEAR: 2001
EXTT0=
EXTT1=
EXTT2=
EXTT3=
EXTT4=
EXTT5=
EXTT6=
EXTT7=
EXTT8=
EXTT9=
PLAYORDER=
